<?xml version="1.0" encoding="UTF-8" standalone="no"?>
<!DOCTYPE svg PUBLIC "-//W3C//DTD SVG 1.1//EN"
 "http://www.w3.org/Graphics/SVG/1.1/DTD/svg11.dtd">
<!-- Generated by graphviz version 2.38.0 (20140413.2041)
 -->
<!-- Pages: 1 -->
<svg width="720pt" height="640pt"
 viewBox="0.00 0.00 720.00 639.62" xmlns="http://www.w3.org/2000/svg" xmlns:xlink="http://www.w3.org/1999/xlink">
<g id="graph0" class="graph" transform="scale(0.503894 0.503894) rotate(0) translate(4 1265.35)">
<polygon fill="white" stroke="none" points="-4,4 -4,-1265.35 1424.87,-1265.35 1424.87,4 -4,4"/>
<!-- Rule18 -->
<g id="node1" class="node"><title>Rule18: &#160;IF Alcohol is average AND AlcalinityOfAsh is low AND flavanoids is average AND OD280/OD315 is high AND Proline is average THEN Class is 1.0 (cov=0.292 ; G= &#45;0.069 ; C1.0=0.712)</title>
<g id="a_node1"><a xlink:title="Rule18: &#160;IF Alcohol is average AND AlcalinityOfAsh is low AND flavanoids is average AND OD280/OD315 is high AND Proline is average THEN Class is 1.0 (cov=0.292 ; G= &#45;0.069 ; C1.0=0.712)">
<path fill="#d3d3d3" stroke="#d3d3d3" stroke-width="0.5" d="M580,-342.219C580,-342.219 721,-342.219 721,-342.219 721,-345.135 720.91,-348.051 720.729,-350.962 720.548,-353.873 720.277,-356.777 719.916,-359.671 719.555,-362.565 719.104,-365.447 718.564,-368.313 718.025,-371.179 717.396,-374.028 716.68,-376.855 715.963,-379.682 715.159,-382.486 714.269,-385.264 713.379,-388.041 712.402,-390.79 711.342,-393.506 710.281,-396.223 709.136,-398.906 707.909,-401.552 706.682,-404.197 705.373,-406.804 703.984,-409.369 702.595,-411.933 701.127,-414.454 699.581,-416.927 698.036,-419.401 696.414,-421.825 694.719,-424.198 693.023,-426.571 691.254,-428.891 689.415,-431.154 687.575,-433.417 685.666,-435.623 683.69,-437.767 681.713,-439.912 679.671,-441.995 677.566,-444.013 675.46,-446.031 673.292,-447.983 671.066,-449.867 668.839,-451.75 666.555,-453.564 664.216,-455.306 661.877,-457.048 659.484,-458.717 657.042,-460.311 654.599,-461.904 652.108,-463.421 649.571,-464.86 647.034,-466.299 644.453,-467.659 641.832,-468.938 639.211,-470.217 636.551,-471.414 633.856,-472.528 631.161,-473.642 628.432,-474.672 625.672,-475.617 622.913,-476.562 620.125,-477.421 617.313,-478.192 614.5,-478.964 611.665,-479.648 608.81,-480.244 605.955,-480.84 603.082,-481.347 600.196,-481.765 597.31,-482.183 594.411,-482.511 591.504,-482.749 588.598,-482.987 585.684,-483.135 582.768,-483.192 579.852,-483.249 576.936,-483.216 574.022,-483.092 571.108,-482.969 568.199,-482.755 565.298,-482.45 562.398,-482.146 559.507,-481.752 556.631,-481.269 553.755,-480.786 550.895,-480.213 548.054,-479.552 545.214,-478.892 542.394,-478.143 539.6,-477.307 536.806,-476.472 534.038,-475.55 531.301,-474.542 528.564,-473.535 525.859,-472.443 523.19,-471.268 523.19,-471.268 580,-342.219 580,-342.219"/>
<path fill="white" stroke="#d3d3d3" stroke-width="0.5" d="M580,-342.219C580,-342.219 523.19,-471.268 523.19,-471.268 520.301,-469.996 517.456,-468.628 514.659,-467.165 511.862,-465.702 509.115,-464.146 506.422,-462.499 503.73,-460.852 501.093,-459.115 498.517,-457.291 495.941,-455.467 493.427,-453.557 490.979,-451.564 488.531,-449.571 486.151,-447.497 483.843,-445.344 481.534,-443.192 479.299,-440.962 477.14,-438.659 474.981,-436.357 472.9,-433.982 470.9,-431.54 468.901,-429.098 466.984,-426.589 465.153,-424.018 463.321,-421.447 461.577,-418.815 459.923,-416.127 458.268,-413.439 456.704,-410.696 455.234,-407.903 453.764,-405.11 452.387,-402.269 451.108,-399.383 449.828,-396.498 448.646,-393.57 447.562,-390.606 446.479,-387.641 445.496,-384.641 444.614,-381.61 443.732,-378.579 442.952,-375.52 442.276,-372.437 441.6,-369.354 441.027,-366.249 440.559,-363.127 440.091,-360.006 439.728,-356.869 439.47,-353.723 439.213,-350.577 439.061,-347.424 439.015,-344.268 438.969,-341.112 439.029,-337.955 439.195,-334.803 439.361,-331.651 439.633,-328.505 440.01,-325.371 440.387,-322.238 440.87,-319.117 441.456,-316.016 442.043,-312.914 442.733,-309.834 443.527,-306.778 444.32,-303.723 445.216,-300.696 446.212,-297.701 447.209,-294.706 448.306,-291.745 449.501,-288.824 450.696,-285.903 451.989,-283.022 453.378,-280.188 454.767,-277.353 456.25,-274.566 457.826,-271.831 459.402,-269.096 461.069,-266.415 462.824,-263.792 464.58,-261.169 466.423,-258.605 468.351,-256.106 470.279,-253.606 472.29,-251.172 474.381,-248.808 476.472,-246.444 478.642,-244.15 480.887,-241.931 483.132,-239.713 485.451,-237.57 487.84,-235.507 490.229,-233.444 492.686,-231.461 495.208,-229.563 497.73,-227.665 500.315,-225.852 502.958,-224.128 505.602,-222.403 508.303,-220.768 511.056,-219.224 513.809,-217.681 516.614,-216.23 519.465,-214.875 522.315,-213.52 525.211,-212.261 528.146,-211.1 531.081,-209.939 534.055,-208.877 537.061,-207.916 540.068,-206.955 543.105,-206.095 546.17,-205.338 549.234,-204.58 552.323,-203.926 555.431,-203.376 558.539,-202.826 561.665,-202.381 564.803,-202.04 567.941,-201.7 571.089,-201.466 574.243,-201.337 577.397,-201.208 580.554,-201.185 583.709,-201.268 586.865,-201.351 590.016,-201.54 593.159,-201.834 596.302,-202.129 599.434,-202.529 602.549,-203.034 605.665,-203.539 608.763,-204.148 611.838,-204.861 614.913,-205.573 617.963,-206.389 620.983,-207.307 624.003,-208.224 626.992,-209.243 629.944,-210.361 632.895,-211.479 635.809,-212.695 638.679,-214.009 641.549,-215.323 644.374,-216.732 647.15,-218.235 649.925,-219.739 652.649,-221.335 655.318,-223.021 657.986,-224.707 660.597,-226.482 663.146,-228.343 665.695,-230.205 668.181,-232.151 670.6,-234.179 673.019,-236.207 675.368,-238.316 677.645,-240.502 679.922,-242.688 682.125,-244.95 684.251,-247.283 686.376,-249.617 688.422,-252.022 690.386,-254.493 692.35,-256.964 694.23,-259.5 696.024,-262.097 697.817,-264.695 699.523,-267.351 701.139,-270.063 702.754,-272.775 704.278,-275.54 705.707,-278.354 707.137,-281.169 708.472,-284.03 709.709,-286.933 710.947,-289.837 712.087,-292.782 713.127,-295.762 714.167,-298.742 715.106,-301.756 715.944,-304.799 716.782,-307.843 717.517,-310.913 718.148,-314.006 718.78,-317.098 719.308,-320.211 719.73,-323.339 720.153,-326.467 720.47,-329.608 720.682,-332.758 720.894,-335.907 721,-339.063 721,-342.219 721,-342.219 580,-342.219 580,-342.219"/>
<ellipse fill="none" stroke="#d3d3d3" cx="580" cy="-342.219" rx="141" ry="141"/>
<ellipse fill="none" stroke="#d3d3d3" cx="580" cy="-342.219" rx="145" ry="145"/>
<ellipse fill="none" stroke="#d3d3d3" cx="580" cy="-342.219" rx="149" ry="149"/>
<ellipse fill="none" stroke="#d3d3d3" cx="580" cy="-342.219" rx="153" ry="153"/>
<ellipse fill="none" stroke="#d3d3d3" cx="580" cy="-342.219" rx="157" ry="157"/>
<text text-anchor="middle" x="580" y="-363.899" font-family="Times New Roman,serif" font-size="15.40">R18</text>
<text text-anchor="middle" x="580" y="-346.899" font-family="Times New Roman,serif" font-size="15.40"> (cov=0.292) </text>
<text text-anchor="middle" x="580" y="-329.899" font-family="Times New Roman,serif" font-size="15.40"> (G= &#45;0.069) </text>
<text text-anchor="middle" x="580" y="-312.899" font-family="Times New Roman,serif" font-size="15.40"> (C1.0=0.712)</text>
</a>
</g>
</g>
<!-- Rule19 -->
<g id="node2" class="node"><title>Rule19: &#160;IF Alcohol is average AND AlcalinityOfAsh is average AND flavanoids is average AND OD280/OD315 is high AND Proline is average THEN Class is 1.0 (cov=0.433 ; G= &#45;0.061 ; C1.0=0.814)</title>
<g id="a_node2"><a xlink:title="Rule19: &#160;IF Alcohol is average AND AlcalinityOfAsh is average AND flavanoids is average AND OD280/OD315 is high AND Proline is average THEN Class is 1.0 (cov=0.433 ; G= &#45;0.061 ; C1.0=0.814)">
<path fill="#d3d3d3" stroke="#d3d3d3" stroke-width="0.5" d="M207.5,-247.189C207.5,-247.189 399,-247.189 399,-247.189 399,-251.15 398.877,-255.11 398.632,-259.064 398.386,-263.017 398.018,-266.962 397.527,-270.892 397.037,-274.823 396.425,-278.737 395.692,-282.629 394.959,-286.522 394.105,-290.391 393.132,-294.23 392.159,-298.07 391.068,-301.879 389.858,-305.65 388.649,-309.422 387.323,-313.156 385.882,-316.845 384.442,-320.535 382.887,-324.179 381.22,-327.772 379.553,-331.365 377.775,-334.906 375.889,-338.389 374.003,-341.872 372.009,-345.295 369.91,-348.655 367.811,-352.014 365.609,-355.307 363.306,-358.53 361.003,-361.753 358.601,-364.903 356.102,-367.977 353.604,-371.05 351.011,-374.046 348.327,-376.959 345.643,-379.871 342.869,-382.7 340.009,-385.441 337.15,-388.182 334.206,-390.833 331.182,-393.391 328.158,-395.95 325.055,-398.413 321.878,-400.779 318.701,-403.145 315.452,-405.412 312.135,-407.576 308.817,-409.74 305.433,-411.801 301.988,-413.755 298.543,-415.71 295.038,-417.557 291.478,-419.294 287.918,-421.031 284.306,-422.657 280.645,-424.17 276.984,-425.683 273.278,-427.082 269.53,-428.365 265.783,-429.648 261.996,-430.814 258.177,-431.862 254.357,-432.91 250.506,-433.84 246.628,-434.649 242.751,-435.459 238.849,-436.147 234.929,-436.715 231.009,-437.282 227.072,-437.728 223.125,-438.051 219.177,-438.374 215.22,-438.575 211.26,-438.652 207.3,-438.73 203.338,-438.685 199.381,-438.517 195.423,-438.349 191.472,-438.058 187.533,-437.645 183.593,-437.232 179.668,-436.697 175.762,-436.041 171.855,-435.384 167.97,-434.607 164.113,-433.709 160.255,-432.812 156.425,-431.795 152.631,-430.66 148.836,-429.525 145.077,-428.273 141.36,-426.905 137.642,-425.537 133.969,-424.054 130.343,-422.458 130.343,-422.458 207.5,-247.189 207.5,-247.189"/>
<path fill="white" stroke="#d3d3d3" stroke-width="0.5" d="M207.5,-247.189C207.5,-247.189 130.343,-422.458 130.343,-422.458 128.382,-421.594 126.435,-420.698 124.503,-419.769 122.572,-418.84 120.656,-417.879 118.757,-416.886 116.857,-415.892 114.975,-414.867 113.11,-413.811 111.245,-412.755 109.398,-411.667 107.57,-410.548 105.741,-409.43 103.932,-408.281 102.142,-407.102 100.352,-405.923 98.5826,-404.713 96.8334,-403.475 95.0843,-402.236 93.356,-400.968 91.6494,-399.672 89.9428,-398.375 88.258,-397.05 86.5959,-395.697 84.9338,-394.344 83.2945,-392.963 81.6788,-391.554 80.063,-390.146 78.471,-388.711 76.9034,-387.249 75.3358,-385.788 73.7929,-384.3 72.2753,-382.786 70.7577,-381.273 69.2655,-379.734 67.7996,-378.17 66.3336,-376.607 64.894,-375.019 63.4814,-373.407 62.0687,-371.795 60.6832,-370.16 59.3255,-368.501 57.9677,-366.843 56.6379,-365.162 55.3366,-363.459 54.0353,-361.756 52.7627,-360.031 51.5193,-358.285 50.2759,-356.539 49.0619,-354.773 47.8778,-352.986 46.6937,-351.2 45.5396,-349.393 44.4162,-347.568 43.2927,-345.743 42.2,-343.899 41.1384,-342.037 40.0769,-340.175 39.0467,-338.295 38.0482,-336.399 37.0498,-334.502 36.0832,-332.589 35.149,-330.66 34.2148,-328.731 33.313,-326.787 32.4441,-324.827 31.5751,-322.868 30.7391,-320.894 29.9365,-318.907 29.1338,-316.92 28.3645,-314.919 27.629,-312.906 26.8935,-310.893 26.1918,-308.867 25.5243,-306.831 24.8568,-304.794 24.2235,-302.746 23.6248,-300.688 23.026,-298.63 22.4618,-296.562 21.9325,-294.486 21.4031,-292.409 20.9087,-290.323 20.4493,-288.229 19.99,-286.136 19.5659,-284.035 19.1771,-281.927 18.7883,-279.819 18.4349,-277.705 18.1171,-275.586 17.7992,-273.466 17.517,-271.341 17.2706,-269.212 17.0241,-267.083 16.8133,-264.95 16.6385,-262.814 16.4636,-260.678 16.3246,-258.539 16.2215,-256.398 16.1185,-254.257 16.0514,-252.115 16.0202,-249.972 15.9891,-247.829 15.9939,-245.685 16.0347,-243.542 16.0756,-241.399 16.1523,-239.257 16.2651,-237.117 16.3778,-234.977 16.5265,-232.838 16.711,-230.703 16.8955,-228.568 17.1159,-226.435 17.372,-224.308 17.6281,-222.18 17.9199,-220.056 18.2472,-217.938 18.5746,-215.82 18.9376,-213.707 19.3359,-211.601 19.7342,-209.495 20.1678,-207.396 20.6366,-205.305 21.1054,-203.213 21.6092,-201.13 22.1479,-199.055 22.6867,-196.981 23.2602,-194.916 23.8682,-192.86 24.4763,-190.805 25.1188,-188.76 25.7955,-186.727 26.4722,-184.693 27.183,-182.671 27.9276,-180.661 28.6722,-178.651 29.4505,-176.654 30.2622,-174.67 31.0738,-172.687 31.9187,-170.717 32.7965,-168.761 33.6743,-166.806 34.5848,-164.866 35.5277,-162.941 36.4706,-161.016 37.4458,-159.107 38.4528,-157.215 39.4598,-155.323 40.4985,-153.448 41.5685,-151.591 42.6384,-149.734 43.7395,-147.895 44.8712,-146.075 46.0029,-144.255 47.165,-142.454 48.3572,-140.673 49.5493,-138.891 50.7713,-137.13 52.0226,-135.39 53.2739,-133.65 54.5543,-131.931 55.8633,-130.234 57.1722,-128.537 58.5096,-126.862 59.8748,-125.21 61.2401,-123.557 62.6329,-121.928 64.0528,-120.323 65.4728,-118.717 66.9195,-117.136 68.3925,-115.579 69.8655,-114.022 71.3646,-112.49 72.889,-110.983 74.4135,-109.476 75.9631,-107.996 77.5373,-106.541 79.1114,-105.086 80.7099,-103.658 82.332,-102.257 83.9541,-100.857 85.5996,-99.483 87.2678,-98.1374 88.9361,-96.7917 90.6268,-95.4741 92.3392,-94.1852 94.0517,-92.8963 95.7856,-91.6363 97.5404,-90.4056 99.2951,-89.1749 101.07,-87.9738 102.865,-86.8027 104.661,-85.6316 106.475,-84.4907 108.309,-83.3805 110.142,-82.2704 111.994,-81.1911 113.863,-80.1431 115.733,-79.0951 117.62,-78.0785 119.524,-77.0939 121.428,-76.1092 123.348,-75.1566 125.283,-74.2364 127.219,-73.3163 129.17,-72.4286 131.136,-71.5739 133.101,-70.7193 135.081,-69.8976 137.074,-69.1094 139.067,-68.3212 141.073,-67.5665 143.092,-66.8456 145.11,-66.1248 147.141,-65.4378 149.182,-64.7851 151.224,-64.1324 153.276,-63.514 155.338,-62.9302 157.401,-62.3464 159.472,-61.7973 161.553,-61.283 163.634,-60.7688 165.723,-60.2895 167.82,-59.8454 169.917,-59.4013 172.021,-58.9924 174.131,-58.619 176.242,-58.2455 178.358,-57.9075 180.48,-57.6051 182.602,-57.3026 184.729,-57.0359 186.86,-56.8049 188.99,-56.5739 191.125,-56.3786 193.262,-56.2193 195.4,-56.0599 197.54,-55.9365 199.681,-55.849 201.823,-55.7615 203.966,-55.7099 206.109,-55.6943 208.252,-55.6788 210.395,-55.6992 212.538,-55.7556 214.681,-55.812 216.822,-55.9043 218.961,-56.0326 221.101,-56.1609 223.238,-56.3251 225.372,-56.5251 227.506,-56.7251 229.636,-56.9609 231.762,-57.2325 233.888,-57.504 236.01,-57.8113 238.126,-58.154 240.241,-58.4968 242.351,-58.8751 244.454,-59.2887 246.557,-59.7023 248.653,-60.1511 250.741,-60.6351 252.829,-61.119 254.909,-61.638 256.979,-62.1918 259.05,-62.7456 261.111,-63.3341 263.161,-63.9571 265.212,-64.58 267.252,-65.2374 269.281,-65.9289 271.31,-66.6203 273.327,-67.3458 275.331,-68.105 277.335,-68.8642 279.327,-69.6569 281.305,-70.483 283.282,-71.309 285.246,-72.1682 287.195,-73.0601 289.144,-73.9521 291.078,-74.8767 292.995,-75.8336 294.913,-76.7905 296.815,-77.7795 298.7,-78.8002 300.584,-79.8209 302.452,-80.8732 304.301,-81.9566 306.15,-83.0401 307.981,-84.1544 309.793,-85.2993 311.605,-86.4442 313.398,-87.6194 315.17,-88.8245 316.943,-90.0296 318.695,-91.2643 320.426,-92.5282 322.157,-93.7921 323.866,-95.0849 325.554,-96.4062 327.241,-97.7275 328.907,-99.077 330.549,-100.454 332.191,-101.831 333.81,-103.236 335.405,-104.668 337.001,-106.099 338.572,-107.557 340.118,-109.042 341.664,-110.526 343.185,-112.036 344.681,-113.571 346.176,-115.107 347.646,-116.667 349.089,-118.252 350.532,-119.836 351.948,-121.445 353.337,-123.078 354.726,-124.71 356.088,-126.365 357.421,-128.043 358.755,-129.721 360.06,-131.421 361.337,-133.143 362.613,-134.865 363.86,-136.608 365.078,-138.372 366.296,-140.135 367.485,-141.919 368.643,-143.723 369.801,-145.526 370.928,-147.349 372.025,-149.191 373.122,-151.032 374.188,-152.892 375.222,-154.769 376.256,-156.646 377.259,-158.54 378.23,-160.451 379.201,-162.362 380.139,-164.289 381.046,-166.231 381.952,-168.174 382.825,-170.131 383.665,-172.103 384.506,-174.075 385.313,-176.06 386.087,-178.059 386.861,-180.058 387.601,-182.069 388.307,-184.093 389.013,-186.117 389.685,-188.152 390.323,-190.198 390.961,-192.244 391.564,-194.301 392.133,-196.368 392.702,-198.434 393.236,-200.51 393.735,-202.594 394.234,-204.679 394.698,-206.771 395.127,-208.871 395.556,-210.971 395.95,-213.078 396.308,-215.191 396.666,-217.304 396.989,-219.423 397.276,-221.547 397.563,-223.671 397.814,-225.8 398.029,-227.933 398.245,-230.065 398.425,-232.201 398.568,-234.339 398.712,-236.478 398.82,-238.619 398.892,-240.761 398.964,-242.903 399,-245.046 399,-247.189 399,-247.189 207.5,-247.189 207.5,-247.189"/>
<ellipse fill="none" stroke="#d3d3d3" cx="207.5" cy="-247.189" rx="191.5" ry="191.5"/>
<ellipse fill="none" stroke="#d3d3d3" cx="207.5" cy="-247.189" rx="195.5" ry="195.5"/>
<ellipse fill="none" stroke="#d3d3d3" cx="207.5" cy="-247.189" rx="199.5" ry="199.5"/>
<ellipse fill="none" stroke="#d3d3d3" cx="207.5" cy="-247.189" rx="203.5" ry="203.5"/>
<ellipse fill="none" stroke="#d3d3d3" cx="207.5" cy="-247.189" rx="207.5" ry="207.5"/>
<text text-anchor="middle" x="207.5" y="-273.989" font-family="Times New Roman,serif" font-size="19.00">R19</text>
<text text-anchor="middle" x="207.5" y="-252.989" font-family="Times New Roman,serif" font-size="19.00"> (cov=0.433) </text>
<text text-anchor="middle" x="207.5" y="-231.989" font-family="Times New Roman,serif" font-size="19.00"> (G= &#45;0.061) </text>
<text text-anchor="middle" x="207.5" y="-210.989" font-family="Times New Roman,serif" font-size="19.00"> (C1.0=0.814)</text>
</a>
</g>
</g>
<!-- Rule18&#45;&#45;Rule19 -->
<g id="edge1" class="edge"><title>R18 &#45;&#45; R19 (0.806)</title>
<g id="a_edge1"><a xlink:title="R18 &#45;&#45; R19 (0.806)">
<path fill="none" stroke="green" stroke-width="9.06" d="M427.684,-303.361C421.452,-301.771 415.167,-300.168 408.858,-298.559"/>
</a>
</g>
<text text-anchor="middle" x="418.271" y="-288.96" font-family="Times New Roman,serif" font-size="15.00">0.806</text>
</g>
<!-- Rule21 -->
<g id="node3" class="node"><title>Rule21: &#160;IF Alcohol is high AND flavanoids is average AND Proline is average THEN Class is 1.0 (cov=0.410 ; G= 0.205 ; C1.0=0.864)</title>
<g id="a_node3"><a xlink:title="Rule21: &#160;IF Alcohol is high AND flavanoids is average AND Proline is average THEN Class is 1.0 (cov=0.410 ; G= 0.205 ; C1.0=0.864)">
<path fill="#d3d3d3" stroke="#d3d3d3" stroke-width="0.5" d="M976.262,-431.266C976.262,-431.266 1159.76,-431.266 1159.76,-431.266 1159.76,-433.32 1159.73,-435.374 1159.66,-437.426 1159.59,-439.479 1159.49,-441.53 1159.35,-443.579 1159.21,-445.628 1159.04,-447.675 1158.83,-449.718 1158.63,-451.762 1158.39,-453.802 1158.11,-455.837 1157.84,-457.872 1157.53,-459.903 1157.18,-461.928 1156.84,-463.952 1156.46,-465.971 1156.05,-467.984 1155.64,-469.996 1155.2,-472.001 1154.72,-473.998 1154.24,-475.996 1153.73,-477.985 1153.18,-479.965 1152.64,-481.945 1152.06,-483.916 1151.45,-485.877 1150.84,-487.837 1150.19,-489.788 1149.52,-491.727 1148.84,-493.666 1148.13,-495.593 1147.39,-497.509 1146.65,-499.424 1145.87,-501.327 1145.07,-503.216 1144.26,-505.105 1143.43,-506.981 1142.56,-508.842 1141.69,-510.703 1140.79,-512.55 1139.86,-514.381 1138.93,-516.212 1137.97,-518.027 1136.98,-519.826 1135.99,-521.625 1134.97,-523.407 1133.91,-525.171 1132.86,-526.936 1131.78,-528.682 1130.67,-530.41 1129.56,-532.139 1128.42,-533.848 1127.26,-535.538 1126.09,-537.228 1124.9,-538.898 1123.67,-540.548 1122.45,-542.198 1121.2,-543.827 1119.92,-545.435 1118.64,-547.043 1117.34,-548.629 1116.01,-550.193 1114.68,-551.757 1113.32,-553.299 1111.94,-554.817 1110.55,-556.336 1109.15,-557.831 1107.71,-559.302 1106.28,-560.773 1104.82,-562.22 1103.34,-563.643 1101.86,-565.065 1100.35,-566.462 1098.82,-567.834 1097.3,-569.206 1095.74,-570.552 1094.17,-571.871 1092.6,-573.191 1091,-574.484 1089.38,-575.75 1087.77,-577.016 1086.13,-578.255 1084.47,-579.466 1082.81,-580.677 1081.13,-581.861 1079.43,-583.015 1077.74,-584.17 1076.02,-585.296 1074.28,-586.393 1072.55,-587.49 1070.79,-588.558 1069.02,-589.596 1067.25,-590.634 1065.46,-591.643 1063.65,-592.621 1061.85,-593.599 1060.02,-594.547 1058.19,-595.463 1056.35,-596.38 1054.5,-597.266 1052.63,-598.121 1050.76,-598.976 1048.88,-599.799 1046.98,-600.591 1045.09,-601.382 1043.18,-602.142 1041.26,-602.869 1039.34,-603.597 1037.41,-604.292 1035.46,-604.954 1033.52,-605.617 1031.56,-606.247 1029.6,-606.844 1027.63,-607.441 1025.66,-608.005 1023.67,-608.535 1021.69,-609.066 1019.7,-609.563 1017.7,-610.027 1015.7,-610.491 1013.69,-610.921 1011.67,-611.317 1009.66,-611.714 1007.64,-612.076 1005.61,-612.404 1003.58,-612.733 1001.55,-613.027 999.511,-613.288 997.474,-613.548 995.433,-613.774 993.388,-613.965 991.343,-614.157 989.295,-614.314 987.245,-614.437 985.195,-614.56 983.143,-614.649 981.09,-614.703 979.037,-614.757 976.983,-614.776 974.929,-614.761 972.876,-614.746 970.822,-614.697 968.77,-614.613 966.718,-614.529 964.668,-614.411 962.62,-614.258 960.572,-614.106 958.526,-613.919 956.484,-613.697 954.443,-613.476 952.405,-613.22 950.371,-612.931 948.338,-612.641 946.31,-612.317 944.288,-611.959 942.265,-611.601 940.249,-611.209 938.24,-610.784 936.231,-610.358 934.229,-609.899 932.235,-609.406 930.241,-608.913 928.256,-608.387 926.28,-607.828 924.304,-607.268 922.337,-606.676 920.381,-606.05 918.425,-605.425 916.479,-604.767 914.545,-604.076 912.611,-603.385 910.688,-602.662 908.779,-601.907 906.869,-601.151 904.972,-600.364 903.088,-599.545 901.205,-598.726 899.335,-597.876 897.481,-596.994 895.626,-596.112 893.786,-595.199 891.962,-594.256 890.137,-593.312 888.329,-592.338 886.538,-591.334 884.746,-590.33 882.972,-589.296 881.215,-588.232 879.458,-587.168 877.719,-586.075 875.999,-584.953 874.279,-583.83 872.578,-582.68 870.896,-581.5 869.215,-580.321 867.553,-579.114 865.913,-577.878 864.272,-576.643 862.652,-575.381 861.053,-574.091 859.455,-572.802 857.878,-571.486 856.323,-570.143 854.769,-568.801 853.237,-567.433 851.729,-566.039 850.221,-564.645 848.736,-563.226 847.275,-561.782 845.814,-560.339 844.378,-558.871 842.966,-557.379 841.555,-555.887 840.168,-554.371 838.808,-552.833 837.447,-551.295 836.113,-549.733 834.804,-548.15 833.496,-546.567 832.215,-544.962 830.96,-543.336 829.706,-541.709 828.479,-540.062 827.28,-538.395 826.081,-536.727 824.91,-535.04 823.768,-533.333 822.626,-531.626 821.512,-529.901 820.428,-528.156 819.343,-526.412 818.288,-524.65 817.263,-522.871 816.238,-521.091 815.242,-519.294 814.277,-517.481 813.312,-515.668 812.378,-513.839 811.474,-511.995 810.571,-510.151 809.698,-508.291 808.857,-506.418 808.016,-504.544 807.207,-502.656 806.429,-500.756 805.651,-498.855 804.905,-496.941 804.192,-495.015 803.478,-493.089 802.797,-491.152 802.149,-489.203 801.5,-487.254 800.885,-485.295 800.302,-483.325 799.719,-481.356 799.17,-479.377 798.654,-477.389 798.137,-475.401 797.655,-473.405 797.205,-471.401 796.756,-469.397 796.341,-467.386 795.959,-465.368 795.577,-463.35 795.23,-461.325 794.916,-459.296 794.602,-457.266 794.323,-455.231 794.077,-453.192 793.832,-451.153 793.621,-449.11 793.444,-447.064 793.267,-445.018 793.124,-442.969 793.016,-440.918 792.908,-438.867 792.835,-436.814 792.796,-434.761 792.757,-432.708 792.752,-430.654 792.782,-428.6 792.812,-426.547 792.876,-424.494 792.975,-422.442 793.074,-420.391 793.207,-418.341 793.374,-416.294 793.542,-414.247 793.744,-412.203 793.98,-410.163 794.216,-408.123 794.487,-406.087 794.791,-404.056 795.096,-402.025 795.434,-399.999 795.807,-397.98 796.179,-395.96 796.586,-393.947 797.026,-391.941 797.466,-389.934 797.94,-387.936 798.447,-385.946 798.954,-383.956 799.495,-381.974 800.069,-380.002 800.642,-378.03 801.249,-376.068 801.889,-374.116 802.529,-372.165 803.201,-370.224 803.906,-368.295 804.61,-366.366 805.348,-364.449 806.117,-362.544 806.886,-360.64 807.687,-358.749 808.52,-356.872 809.352,-354.994 810.216,-353.131 811.112,-351.282 812.007,-349.434 812.933,-347.601 813.89,-345.783 814.846,-343.966 815.834,-342.165 816.851,-340.381 817.868,-338.597 818.915,-336.83 819.992,-335.081 821.068,-333.332 822.174,-331.601 823.309,-329.889 824.443,-328.177 825.606,-326.484 826.798,-324.812 827.989,-323.139 829.209,-321.486 830.456,-319.854 831.703,-318.222 832.977,-316.611 834.278,-315.022 835.579,-313.433 836.907,-311.866 838.26,-310.321 839.614,-308.777 840.993,-307.255 842.398,-305.757 843.803,-304.259 845.233,-302.784 846.687,-301.334 848.141,-299.884 849.62,-298.458 851.122,-297.057 852.624,-295.657 854.149,-294.281 855.697,-292.932 857.246,-291.583 858.817,-290.259 860.409,-288.963 862.002,-287.666 863.616,-286.396 865.252,-285.154 866.887,-283.911 868.543,-282.696 870.219,-281.51 871.895,-280.323 873.591,-279.164 875.306,-278.034 877.021,-276.904 878.755,-275.803 880.507,-274.732 882.259,-273.66 884.029,-272.618 885.816,-271.605 887.603,-270.593 889.406,-269.611 891.226,-268.659 893.046,-267.707 894.882,-266.786 896.733,-265.896 898.584,-265.006 900.449,-264.147 902.329,-263.319 902.329,-263.319 976.262,-431.266 976.262,-431.266"/>
<path fill="white" stroke="#d3d3d3" stroke-width="0.5" d="M976.262,-431.266C976.262,-431.266 902.329,-263.319 902.329,-263.319 905.803,-261.79 909.323,-260.369 912.885,-259.058 916.447,-257.747 920.049,-256.547 923.685,-255.46 927.322,-254.372 930.991,-253.398 934.688,-252.538 938.384,-251.678 942.107,-250.933 945.85,-250.304 949.593,-249.675 953.355,-249.162 957.129,-248.766 960.904,-248.371 964.69,-248.092 968.482,-247.931 972.274,-247.77 976.071,-247.727 979.865,-247.802 983.66,-247.876 987.452,-248.068 991.234,-248.378 995.017,-248.688 998.789,-249.115 1002.55,-249.658 1006.3,-250.202 1010.04,-250.862 1013.76,-251.638 1017.47,-252.413 1021.16,-253.304 1024.82,-254.308 1028.48,-255.312 1032.11,-256.43 1035.7,-257.66 1039.29,-258.889 1042.84,-260.23 1046.35,-261.679 1049.86,-263.129 1053.32,-264.687 1056.73,-266.352 1060.14,-268.016 1063.5,-269.786 1066.8,-271.659 1070.1,-273.531 1073.35,-275.506 1076.53,-277.58 1079.7,-279.654 1082.82,-281.826 1085.86,-284.093 1088.91,-286.36 1091.88,-288.72 1094.78,-291.172 1097.68,-293.623 1100.5,-296.164 1103.24,-298.79 1105.98,-301.416 1108.63,-304.127 1111.21,-306.918 1113.78,-309.709 1116.26,-312.58 1118.66,-315.525 1121.05,-318.47 1123.35,-321.489 1125.56,-324.577 1127.77,-327.665 1129.88,-330.821 1131.89,-334.04 1133.9,-337.259 1135.81,-340.539 1137.62,-343.877 1139.42,-347.214 1141.13,-350.607 1142.73,-354.05 1144.32,-357.493 1145.81,-360.985 1147.19,-364.52 1148.57,-368.056 1149.84,-371.633 1151,-375.247 1152.16,-378.862 1153.21,-382.511 1154.14,-386.19 1155.07,-389.869 1155.89,-393.577 1156.59,-397.307 1157.3,-401.036 1157.88,-404.787 1158.35,-408.554 1158.82,-412.32 1159.17,-416.1 1159.41,-419.888 1159.64,-423.676 1159.76,-427.471 1159.76,-431.266 1159.76,-431.266 976.262,-431.266 976.262,-431.266"/>
<ellipse fill="none" stroke="#d3d3d3" cx="976.262" cy="-431.266" rx="183.5" ry="183.5"/>
<ellipse fill="none" stroke="#d3d3d3" cx="976.262" cy="-431.266" rx="187.5" ry="187.5"/>
<ellipse fill="none" stroke="#d3d3d3" cx="976.262" cy="-431.266" rx="191.5" ry="191.5"/>
<text text-anchor="middle" x="976.262" y="-458.066" font-family="Times New Roman,serif" font-size="19.00">R21</text>
<text text-anchor="middle" x="976.262" y="-437.066" font-family="Times New Roman,serif" font-size="19.00"> (cov=0.410) </text>
<text text-anchor="middle" x="976.262" y="-416.066" font-family="Times New Roman,serif" font-size="19.00"> (G= 0.205) </text>
<text text-anchor="middle" x="976.262" y="-395.066" font-family="Times New Roman,serif" font-size="19.00"> (C1.0=0.864)</text>
</a>
</g>
</g>
<!-- Rule18&#45;&#45;Rule21 -->
<g id="edge2" class="edge"><title>R18 &#45;&#45; R21 (0.617)</title>
<g id="a_edge2"><a xlink:title="R18 &#45;&#45; R21 (0.617)">
<path fill="none" stroke="green" stroke-width="7.168" d="M733.205,-376.647C751.609,-380.783 770.558,-385.041 789.371,-389.268"/>
</a>
</g>
<text text-anchor="middle" x="761.288" y="-370.958" font-family="Times New Roman,serif" font-size="15.00">0.617</text>
</g>
<!-- Rule22 -->
<g id="node4" class="node"><title>Rule22: &#160;IF flavanoids is average AND Proline is high THEN Class is 1.0 (cov=0.208 ; G= 0.306 ; C1.0=0.610)</title>
<g id="a_node4"><a xlink:title="Rule22: &#160;IF flavanoids is average AND Proline is high THEN Class is 1.0 (cov=0.208 ; G= 0.306 ; C1.0=0.610)">
<path fill="#d3d3d3" stroke="#d3d3d3" stroke-width="0.5" d="M1240.8,-115C1240.8,-115 1351.8,-115 1351.8,-115 1351.8,-116.787 1351.76,-118.574 1351.67,-120.359 1351.58,-122.145 1351.46,-123.927 1351.28,-125.706 1351.11,-127.485 1350.9,-129.26 1350.64,-131.028 1350.38,-132.797 1350.08,-134.559 1349.73,-136.313 1349.39,-138.067 1349.01,-139.812 1348.58,-141.548 1348.15,-143.283 1347.68,-145.008 1347.17,-146.721 1346.66,-148.433 1346.11,-150.134 1345.52,-151.82 1344.92,-153.506 1344.29,-155.177 1343.62,-156.833 1342.94,-158.488 1342.23,-160.127 1341.48,-161.748 1340.72,-163.369 1339.93,-164.972 1339.1,-166.555 1338.27,-168.137 1337.4,-169.7 1336.5,-171.241 1335.59,-172.782 1334.65,-174.3 1333.67,-175.796 1332.69,-177.291 1331.68,-178.763 1330.63,-180.209 1329.58,-181.655 1328.49,-183.076 1327.37,-184.47 1326.25,-185.864 1325.1,-187.231 1323.92,-188.569 1322.73,-189.907 1321.52,-191.217 1320.27,-192.496 1320.27,-192.496 1240.8,-115 1240.8,-115"/>
<path fill="white" stroke="#d3d3d3" stroke-width="0.5" d="M1240.8,-115C1240.8,-115 1320.27,-192.496 1320.27,-192.496 1318.04,-194.777 1315.72,-196.962 1313.31,-199.043 1310.9,-201.124 1308.4,-203.101 1305.81,-204.967 1303.23,-206.833 1300.57,-208.587 1297.84,-210.225 1295.1,-211.862 1292.3,-213.381 1289.44,-214.777 1286.57,-216.173 1283.65,-217.445 1280.68,-218.59 1277.7,-219.734 1274.68,-220.75 1271.62,-221.635 1268.56,-222.52 1265.46,-223.272 1262.34,-223.89 1259.21,-224.509 1256.06,-224.992 1252.89,-225.339 1249.73,-225.686 1246.55,-225.897 1243.36,-225.97 1240.18,-226.044 1236.99,-225.98 1233.81,-225.78 1230.63,-225.579 1227.46,-225.241 1224.31,-224.768 1221.16,-224.295 1218.03,-223.686 1214.93,-222.943 1211.83,-222.201 1208.77,-221.325 1205.74,-220.319 1202.72,-219.312 1199.74,-218.176 1196.82,-216.914 1193.89,-215.651 1191.02,-214.264 1188.22,-212.754 1185.41,-211.245 1182.67,-209.615 1180,-207.87 1177.34,-206.125 1174.75,-204.266 1172.24,-202.298 1169.74,-200.33 1167.32,-198.256 1164.99,-196.079 1162.66,-193.903 1160.43,-191.628 1158.3,-189.26 1156.17,-186.892 1154.14,-184.433 1152.22,-181.89 1150.3,-179.348 1148.49,-176.724 1146.79,-174.025 1145.1,-171.327 1143.52,-168.557 1142.07,-165.723 1140.61,-162.889 1139.28,-159.993 1138.07,-157.045 1136.86,-154.096 1135.79,-151.096 1134.84,-148.055 1133.89,-145.013 1133.07,-141.932 1132.39,-138.82 1131.7,-135.708 1131.15,-132.568 1130.74,-129.409 1130.33,-126.25 1130.05,-123.074 1129.91,-119.891 1129.77,-116.708 1129.76,-113.521 1129.9,-110.337 1130.03,-107.154 1130.3,-103.978 1130.71,-100.818 1131.12,-97.6577 1131.66,-94.5167 1132.34,-91.4033 1133.01,-88.29 1133.83,-85.2072 1134.77,-82.1637 1135.71,-79.1201 1136.78,-76.1186 1137.98,-73.1673 1139.19,-70.2161 1140.51,-67.3179 1141.96,-64.4809 1143.41,-61.6438 1144.98,-58.8705 1146.67,-56.1687 1148.36,-53.4669 1150.17,-50.839 1152.08,-48.2924 1154,-45.7458 1156.02,-43.2828 1158.15,-40.9102 1160.27,-38.5377 1162.5,-36.2579 1164.82,-34.077 1167.15,-31.8962 1169.56,-29.8163 1172.06,-27.8433 1174.57,-25.8703 1177.15,-24.0059 1179.81,-22.2553 1182.48,-20.5047 1185.21,-18.8696 1188.01,-17.3544 1190.82,-15.8392 1193.68,-14.4454 1196.61,-13.1769 1199.53,-11.9084 1202.51,-10.7663 1205.53,-9.75376 1208.55,-8.74126 1211.61,-7.8593 1214.71,-7.11034 1217.8,-6.36137 1220.93,-5.74609 1224.08,-5.26621 1227.23,-4.78633 1230.4,-4.44229 1233.58,-4.23505 1236.76,-4.02781 1239.95,-3.95756 1243.13,-4.0245 1246.32,-4.09143 1249.5,-4.29549 1252.67,-4.6361 1255.83,-4.97672 1258.99,-5.45357 1262.11,-6.06534 1265.24,-6.67711 1268.34,-7.42323 1271.4,-8.30162 1274.46,-9.18001 1277.49,-10.1899 1280.46,-11.3284 1283.44,-12.4669 1286.37,-13.733 1289.23,-15.1232 1292.1,-16.5134 1294.9,-18.0264 1297.64,-19.6579 1300.38,-21.2895 1303.04,-23.0382 1305.63,-24.899 1308.22,-26.7599 1310.72,-28.7312 1313.14,-30.8076 1315.55,-32.884 1317.88,-35.0635 1320.11,-37.34 1322.34,-39.6165 1324.47,-41.9879 1326.49,-44.4477 1328.52,-46.9074 1330.44,-49.4532 1332.24,-52.078 1334.05,-54.7028 1335.74,-57.4042 1337.32,-60.1746 1338.89,-62.9449 1340.34,-65.7818 1341.67,-68.6773 1343,-71.5727 1344.21,-74.5241 1345.28,-77.5232 1346.36,-80.5222 1347.3,-83.5662 1348.12,-86.6467 1348.93,-89.7272 1349.61,-92.8412 1350.16,-95.9803 1350.7,-99.1193 1351.12,-102.28 1351.39,-105.455 1351.66,-108.629 1351.8,-111.814 1351.8,-115 1351.8,-115 1240.8,-115 1240.8,-115"/>
<ellipse fill="none" stroke="#d3d3d3" cx="1240.8" cy="-115" rx="111" ry="111"/>
<ellipse fill="none" stroke="#d3d3d3" cx="1240.8" cy="-115" rx="115" ry="115"/>
<text text-anchor="middle" x="1240.8" y="-136.68" font-family="Times New Roman,serif" font-size="15.40">R22</text>
<text text-anchor="middle" x="1240.8" y="-119.68" font-family="Times New Roman,serif" font-size="15.40"> (cov=0.208) </text>
<text text-anchor="middle" x="1240.8" y="-102.68" font-family="Times New Roman,serif" font-size="15.40"> (G= 0.306) </text>
<text text-anchor="middle" x="1240.8" y="-85.68" font-family="Times New Roman,serif" font-size="15.40"> (C1.0=0.610)</text>
</a>
</g>
</g>
<!-- Rule21&#45;&#45;Rule22 -->
<g id="edge3" class="edge"><title>R21 &#45;&#45; R22 (0.644)</title>
<g id="a_edge3"><a xlink:title="R21 &#45;&#45; R22 (0.644)">
<path fill="none" stroke="green" stroke-width="7.437" d="M1099.24,-284.244C1122.31,-256.66 1145.76,-228.622 1166.77,-203.512"/>
</a>
</g>
<text text-anchor="middle" x="1116" y="-231.878" font-family="Times New Roman,serif" font-size="15.00">0.644</text>
</g>
<!-- Rule25 -->
<g id="node6" class="node"><title>Rule25: &#160;IF Alcohol is high AND flavanoids is high THEN Class is 1.0 (cov=0.169 ; G= 0.073 ; C1.0=0.492)</title>
<g id="a_node6"><a xlink:title="Rule25: &#160;IF Alcohol is high AND flavanoids is high THEN Class is 1.0 (cov=0.169 ; G= 0.073 ; C1.0=0.492)">
<path fill="#d3d3d3" stroke="#d3d3d3" stroke-width="0.5" d="M1131.68,-806.657C1131.68,-806.657 1228.18,-806.657 1228.18,-806.657 1228.18,-808.526 1228.12,-810.396 1228.01,-812.262 1227.91,-814.129 1227.74,-815.992 1227.53,-817.849 1227.31,-819.706 1227.04,-821.556 1226.71,-823.397 1226.39,-825.239 1226.01,-827.07 1225.58,-828.889 1225.15,-830.709 1224.67,-832.515 1224.13,-834.306 1223.6,-836.098 1223.01,-837.873 1222.37,-839.63 1221.73,-841.387 1221.04,-843.125 1220.3,-844.842 1219.56,-846.559 1218.77,-848.255 1217.93,-849.926 1217.09,-851.597 1216.21,-853.243 1215.27,-854.863 1214.34,-856.483 1213.36,-858.075 1212.33,-859.638 1211.31,-861.2 1210.23,-862.733 1209.12,-864.233 1208,-865.733 1206.84,-867.201 1205.64,-868.634 1204.44,-870.067 1203.2,-871.465 1201.92,-872.826 1200.64,-874.187 1199.32,-875.51 1197.96,-876.794 1196.6,-878.079 1195.2,-879.323 1193.77,-880.526 1192.34,-881.729 1190.87,-882.89 1189.37,-884.008 1189.37,-884.008 1131.68,-806.657 1131.68,-806.657"/>
<path fill="white" stroke="#d3d3d3" stroke-width="0.5" d="M1131.68,-806.657C1131.68,-806.657 1189.37,-884.008 1189.37,-884.008 1187.22,-885.617 1184.99,-887.135 1182.71,-888.558 1180.43,-889.981 1178.08,-891.308 1175.69,-892.536 1173.29,-893.763 1170.85,-894.889 1168.36,-895.912 1165.87,-896.935 1163.34,-897.854 1160.78,-898.665 1158.21,-899.477 1155.61,-900.18 1152.99,-900.775 1150.36,-901.369 1147.71,-901.853 1145.05,-902.226 1142.38,-902.599 1139.7,-902.86 1137.02,-903.009 1134.33,-903.158 1131.64,-903.194 1128.95,-903.118 1126.26,-903.042 1123.57,-902.854 1120.9,-902.553 1118.23,-902.253 1115.56,-901.84 1112.93,-901.317 1110.29,-900.794 1107.67,-900.161 1105.08,-899.42 1102.5,-898.678 1099.94,-897.829 1097.43,-896.873 1094.91,-895.918 1092.43,-894.858 1090.01,-893.696 1087.58,-892.534 1085.2,-891.271 1082.88,-889.911 1080.56,-888.55 1078.3,-887.093 1076.1,-885.543 1073.9,-883.993 1071.76,-882.352 1069.7,-880.623 1067.64,-878.895 1065.65,-877.081 1063.74,-875.187 1061.83,-873.292 1059.99,-871.319 1058.25,-869.271 1056.5,-867.223 1054.84,-865.104 1053.27,-862.917 1051.71,-860.731 1050.23,-858.48 1048.85,-856.17 1047.47,-853.86 1046.18,-851.494 1045,-849.077 1043.82,-846.66 1042.74,-844.194 1041.76,-841.687 1040.78,-839.18 1039.91,-836.632 1039.15,-834.052 1038.38,-831.472 1037.73,-828.861 1037.18,-826.226 1036.64,-823.591 1036.2,-820.934 1035.88,-818.263 1035.55,-815.591 1035.34,-812.907 1035.24,-810.218 1035.14,-807.529 1035.16,-804.837 1035.28,-802.149 1035.41,-799.461 1035.65,-796.779 1036,-794.111 1036.35,-791.443 1036.81,-788.791 1037.38,-786.161 1037.95,-783.532 1038.63,-780.927 1039.42,-778.354 1040.21,-775.782 1041.11,-773.243 1042.11,-770.746 1043.11,-768.248 1044.21,-765.793 1045.42,-763.388 1046.63,-760.983 1047.93,-758.629 1049.34,-756.333 1050.74,-754.037 1052.24,-751.8 1053.83,-749.629 1055.42,-747.459 1057.1,-745.355 1058.87,-743.325 1060.63,-741.295 1062.48,-739.339 1064.41,-737.463 1066.34,-735.588 1068.35,-733.793 1070.43,-732.085 1072.51,-730.377 1074.66,-728.757 1076.87,-727.229 1079.09,-725.701 1081.37,-724.266 1083.7,-722.928 1086.04,-721.59 1088.43,-720.35 1090.86,-719.212 1093.3,-718.074 1095.79,-717.039 1098.31,-716.108 1100.84,-715.178 1103.4,-714.353 1105.99,-713.637 1108.59,-712.921 1111.21,-712.314 1113.86,-711.817 1116.5,-711.32 1119.16,-710.934 1121.84,-710.659 1124.52,-710.385 1127.21,-710.223 1129.9,-710.173 1132.59,-710.124 1135.28,-710.187 1137.96,-710.362 1140.65,-710.537 1143.33,-710.825 1145.99,-711.224 1148.65,-711.623 1151.29,-712.133 1153.91,-712.753 1156.53,-713.373 1159.12,-714.102 1161.68,-714.939 1164.24,-715.775 1166.76,-716.718 1169.24,-717.766 1171.71,-718.813 1174.15,-719.964 1176.53,-721.214 1178.91,-722.465 1181.24,-723.815 1183.51,-725.261 1185.78,-726.706 1187.99,-728.246 1190.13,-729.876 1192.27,-731.506 1194.34,-733.225 1196.34,-735.028 1198.34,-736.831 1200.26,-738.717 1202.1,-740.681 1203.94,-742.645 1205.7,-744.685 1207.37,-746.795 1209.04,-748.906 1210.62,-751.085 1212.1,-753.328 1213.59,-755.571 1214.98,-757.875 1216.28,-760.234 1217.57,-762.593 1218.77,-765.005 1219.86,-767.464 1220.95,-769.924 1221.94,-772.427 1222.83,-774.969 1223.71,-777.511 1224.49,-780.088 1225.15,-782.695 1225.82,-785.302 1226.38,-787.935 1226.83,-790.589 1227.28,-793.242 1227.61,-795.913 1227.84,-798.595 1228.06,-801.276 1228.18,-803.966 1228.18,-806.657 1228.18,-806.657 1131.68,-806.657 1131.68,-806.657"/>
<ellipse fill="none" stroke="#d3d3d3" cx="1131.68" cy="-806.657" rx="96.5" ry="96.5"/>
<ellipse fill="none" stroke="#d3d3d3" cx="1131.68" cy="-806.657" rx="100.5" ry="100.5"/>
<text text-anchor="middle" x="1131.68" y="-825.777" font-family="Times New Roman,serif" font-size="13.60">R25</text>
<text text-anchor="middle" x="1131.68" y="-810.777" font-family="Times New Roman,serif" font-size="13.60"> (cov=0.169) </text>
<text text-anchor="middle" x="1131.68" y="-795.777" font-family="Times New Roman,serif" font-size="13.60"> (G= 0.073) </text>
<text text-anchor="middle" x="1131.68" y="-780.777" font-family="Times New Roman,serif" font-size="13.60"> (C1.0=0.492)</text>
</a>
</g>
</g>
<!-- Rule21&#45;&#45;Rule25 -->
<g id="edge4" class="edge"><title>R21 &#45;&#45; R25 (0.609)</title>
<g id="a_edge4"><a xlink:title="R21 &#45;&#45; R25 (0.609)">
<path fill="none" stroke="green" stroke-width="7.086" d="M1049.53,-608.244C1064.64,-644.724 1079.96,-681.746 1093.22,-713.773"/>
</a>
</g>
<text text-anchor="middle" x="1054.38" y="-666.009" font-family="Times New Roman,serif" font-size="15.00">0.609</text>
</g>
<!-- Rule24 -->
<g id="node5" class="node"><title>Rule24: &#160;IF Alcohol is average AND flavanoids is high THEN Class is 1.0 (cov=0.202 ; G= &#45;0.187 ; C1.0=0.492)</title>
<g id="a_node5"><a xlink:title="Rule24: &#160;IF Alcohol is average AND flavanoids is high THEN Class is 1.0 (cov=0.202 ; G= &#45;0.187 ; C1.0=0.492)">
<path fill="#d3d3d3" stroke="#d3d3d3" stroke-width="0.5" d="M1307.87,-1148.35C1307.87,-1148.35 1416.87,-1148.35 1416.87,-1148.35 1416.87,-1150.46 1416.81,-1152.58 1416.69,-1154.68 1416.56,-1156.79 1416.38,-1158.9 1416.14,-1160.99 1415.89,-1163.09 1415.59,-1165.18 1415.22,-1167.26 1414.85,-1169.34 1414.43,-1171.41 1413.94,-1173.47 1413.45,-1175.52 1412.91,-1177.56 1412.3,-1179.58 1411.7,-1181.61 1411.03,-1183.61 1410.31,-1185.6 1409.59,-1187.58 1408.81,-1189.55 1407.97,-1191.48 1407.14,-1193.42 1406.25,-1195.34 1405.3,-1197.23 1404.35,-1199.11 1403.35,-1200.97 1402.3,-1202.8 1401.24,-1204.63 1400.13,-1206.43 1398.97,-1208.2 1397.81,-1209.96 1396.6,-1211.69 1395.34,-1213.39 1394.08,-1215.08 1392.78,-1216.74 1391.42,-1218.36 1390.06,-1219.98 1388.66,-1221.56 1387.21,-1223.09 1385.76,-1224.63 1384.27,-1226.13 1382.74,-1227.58 1381.2,-1229.03 1379.62,-1230.43 1378.01,-1231.79 1376.39,-1233.15 1374.74,-1234.46 1373.04,-1235.72 1373.04,-1235.72 1307.87,-1148.35 1307.87,-1148.35"/>
<path fill="white" stroke="#d3d3d3" stroke-width="0.5" d="M1307.87,-1148.35C1307.87,-1148.35 1373.04,-1235.72 1373.04,-1235.72 1370.61,-1237.54 1368.1,-1239.26 1365.52,-1240.86 1362.94,-1242.47 1360.29,-1243.97 1357.59,-1245.36 1354.88,-1246.74 1352.12,-1248.01 1349.31,-1249.17 1346.5,-1250.33 1343.64,-1251.36 1340.74,-1252.28 1337.84,-1253.2 1334.91,-1253.99 1331.94,-1254.66 1328.98,-1255.33 1325.99,-1255.88 1322.98,-1256.3 1319.97,-1256.72 1316.94,-1257.02 1313.9,-1257.19 1310.87,-1257.35 1307.83,-1257.4 1304.79,-1257.31 1301.75,-1257.22 1298.72,-1257.01 1295.7,-1256.67 1292.68,-1256.33 1289.67,-1255.87 1286.69,-1255.27 1283.71,-1254.68 1280.75,-1253.97 1277.83,-1253.13 1274.91,-1252.29 1272.02,-1251.33 1269.18,-1250.26 1266.34,-1249.18 1263.55,-1247.98 1260.8,-1246.67 1258.06,-1245.35 1255.38,-1243.93 1252.75,-1242.39 1250.13,-1240.85 1247.58,-1239.21 1245.09,-1237.46 1242.61,-1235.71 1240.2,-1233.85 1237.87,-1231.9 1235.54,-1229.95 1233.29,-1227.9 1231.13,-1225.76 1228.97,-1223.62 1226.9,-1221.39 1224.93,-1219.08 1222.96,-1216.76 1221.08,-1214.37 1219.31,-1211.9 1217.54,-1209.43 1215.87,-1206.89 1214.31,-1204.28 1212.75,-1201.67 1211.3,-1199 1209.97,-1196.27 1208.63,-1193.54 1207.41,-1190.75 1206.31,-1187.92 1205.2,-1185.09 1204.22,-1182.21 1203.36,-1179.3 1202.49,-1176.38 1201.75,-1173.43 1201.14,-1170.46 1200.52,-1167.48 1200.03,-1164.48 1199.66,-1161.46 1199.3,-1158.44 1199.06,-1155.41 1198.95,-1152.38 1198.83,-1149.34 1198.85,-1146.3 1198.99,-1143.26 1199.13,-1140.22 1199.4,-1137.2 1199.8,-1134.18 1200.19,-1131.17 1200.71,-1128.17 1201.36,-1125.2 1202,-1122.23 1202.77,-1119.29 1203.66,-1116.38 1204.56,-1113.48 1205.57,-1110.61 1206.7,-1107.79 1207.83,-1104.97 1209.08,-1102.2 1210.44,-1099.48 1211.81,-1096.76 1213.28,-1094.1 1214.87,-1091.51 1216.45,-1088.92 1218.14,-1086.39 1219.94,-1083.94 1221.74,-1081.49 1223.64,-1079.11 1225.63,-1076.82 1227.62,-1074.52 1229.71,-1072.31 1231.89,-1070.2 1234.07,-1068.08 1236.34,-1066.05 1238.69,-1064.12 1241.04,-1062.19 1243.47,-1060.36 1245.97,-1058.64 1248.47,-1056.91 1251.04,-1055.29 1253.68,-1053.78 1256.32,-1052.27 1259.02,-1050.87 1261.77,-1049.58 1264.53,-1048.3 1267.33,-1047.13 1270.18,-1046.08 1273.04,-1045.02 1275.93,-1044.09 1278.86,-1043.28 1281.79,-1042.48 1284.75,-1041.79 1287.74,-1041.23 1290.73,-1040.67 1293.74,-1040.23 1296.76,-1039.92 1299.79,-1039.61 1302.82,-1039.43 1305.86,-1039.37 1308.9,-1039.32 1311.94,-1039.39 1314.97,-1039.58 1318,-1039.78 1321.03,-1040.11 1324.03,-1040.56 1327.04,-1041.01 1330.03,-1041.58 1332.98,-1042.28 1335.94,-1042.99 1338.87,-1043.81 1341.76,-1044.75 1344.65,-1045.7 1347.49,-1046.76 1350.29,-1047.95 1353.09,-1049.13 1355.84,-1050.43 1358.53,-1051.84 1361.23,-1053.26 1363.86,-1054.78 1366.42,-1056.41 1368.98,-1058.05 1371.48,-1059.78 1373.9,-1061.63 1376.32,-1063.47 1378.66,-1065.41 1380.91,-1067.45 1383.17,-1069.48 1385.34,-1071.61 1387.42,-1073.83 1389.49,-1076.05 1391.48,-1078.35 1393.36,-1080.74 1395.25,-1083.12 1397.04,-1085.58 1398.72,-1088.12 1400.39,-1090.65 1401.97,-1093.25 1403.43,-1095.92 1404.89,-1098.58 1406.24,-1101.31 1407.48,-1104.08 1408.71,-1106.86 1409.83,-1109.69 1410.83,-1112.56 1411.83,-1115.43 1412.7,-1118.34 1413.46,-1121.29 1414.21,-1124.23 1414.84,-1127.21 1415.35,-1130.2 1415.86,-1133.2 1416.24,-1136.22 1416.49,-1139.25 1416.74,-1142.27 1416.87,-1145.31 1416.87,-1148.35 1416.87,-1148.35 1307.87,-1148.35 1307.87,-1148.35"/>
<ellipse fill="none" stroke="#d3d3d3" cx="1307.87" cy="-1148.35" rx="109" ry="109"/>
<ellipse fill="none" stroke="#d3d3d3" cx="1307.87" cy="-1148.35" rx="113" ry="113"/>
<text text-anchor="middle" x="1307.87" y="-1170.03" font-family="Times New Roman,serif" font-size="15.40">R24</text>
<text text-anchor="middle" x="1307.87" y="-1153.03" font-family="Times New Roman,serif" font-size="15.40"> (cov=0.202) </text>
<text text-anchor="middle" x="1307.87" y="-1136.03" font-family="Times New Roman,serif" font-size="15.40"> (G= &#45;0.187) </text>
<text text-anchor="middle" x="1307.87" y="-1119.03" font-family="Times New Roman,serif" font-size="15.40"> (C1.0=0.492)</text>
</a>
</g>
</g>
<!-- Rule24&#45;&#45;Rule25 -->
<g id="edge5" class="edge"><title>R24 &#45;&#45; R25 (0.836)</title>
<g id="a_edge5"><a xlink:title="R24 &#45;&#45; R25 (0.836)">
<path fill="none" stroke="green" stroke-width="9.356" d="M1255.96,-1047.68C1231.19,-999.647 1201.8,-942.656 1177.83,-896.154"/>
</a>
</g>
<text text-anchor="middle" x="1199.89" y="-976.918" font-family="Times New Roman,serif" font-size="15.00">0.836</text>
</g>
</g>
</svg>
