<?xml version="1.0" encoding="UTF-8" standalone="no"?>
<!DOCTYPE svg PUBLIC "-//W3C//DTD SVG 1.1//EN"
 "http://www.w3.org/Graphics/SVG/1.1/DTD/svg11.dtd">
<!-- Generated by graphviz version 2.36.0 (20140111.2315)
 -->
<!-- Pages: 1 -->
<svg width="506pt" height="568pt"
 viewBox="0.00 0.00 506.48 568.00" xmlns="http://www.w3.org/2000/svg" xmlns:xlink="http://www.w3.org/1999/xlink">
<g id="graph0" class="graph" transform="scale(1 1) rotate(0) translate(4 564)">
<polygon fill="white" stroke="none" points="-4,4 -4,-564 502.484,-564 502.484,4 -4,4"/>
<!-- Rule7 -->
<g id="node1" class="node"><title>Rule7: &#160;IF AlcalinityOfAsh is more or less (more or less (more or less (high))) AND flavanoids is high AND Proline is high THEN Class is 1.0 (cov=0.293 ; G= 0.693 ; C1.0=0.841)</title>
<g id="a_node1"><a xlink:title="Rule7: &#160;IF AlcalinityOfAsh is more or less (more or less (more or less (high))) AND flavanoids is high AND Proline is high THEN Class is 1.0 (cov=0.293 ; G= 0.693 ; C1.0=0.841)">
<path fill="#d3d3d3" stroke="#d3d3d3" stroke-width="0.5" d="M149.5,-149.5C149.5,-149.5 291,-149.5 291,-149.5 291,-151.415 290.961,-153.329 290.883,-155.243 290.806,-157.156 290.689,-159.067 290.534,-160.976 290.379,-162.884 290.185,-164.789 289.952,-166.69 289.719,-168.591 289.448,-170.486 289.139,-172.376 288.829,-174.266 288.481,-176.149 288.095,-178.024 287.709,-179.9 287.285,-181.767 286.823,-183.626 286.362,-185.484 285.862,-187.333 285.325,-189.171 284.788,-191.009 284.214,-192.836 283.603,-194.65 282.992,-196.465 282.345,-198.267 281.66,-200.056 280.976,-201.844 280.256,-203.618 279.5,-205.378 278.744,-207.137 277.952,-208.88 277.125,-210.607 276.298,-212.334 275.436,-214.045 274.54,-215.737 273.644,-217.429 272.713,-219.102 271.749,-220.757 270.784,-222.411 269.787,-224.046 268.756,-225.659 267.725,-227.273 266.662,-228.866 265.567,-230.436 264.472,-232.007 263.345,-233.555 262.187,-235.08 261.028,-236.605 259.84,-238.106 258.621,-239.583 257.402,-241.06 256.153,-242.511 254.875,-243.937 253.597,-245.363 252.29,-246.763 250.955,-248.136 249.62,-249.509 248.258,-250.855 246.869,-252.172 245.479,-253.49 244.063,-254.779 242.621,-256.039 241.18,-257.3 239.713,-258.53 238.221,-259.731 236.729,-260.931 235.213,-262.102 233.674,-263.241 232.135,-264.38 230.573,-265.487 228.989,-266.563 227.405,-267.639 225.799,-268.682 224.172,-269.693 222.546,-270.703 220.899,-271.681 219.233,-272.624 217.567,-273.568 215.882,-274.478 214.179,-275.353 212.476,-276.228 210.755,-277.069 209.018,-277.874 207.281,-278.679 205.527,-279.449 203.759,-280.184 201.99,-280.918 200.207,-281.616 198.41,-282.278 196.614,-282.94 194.804,-283.565 192.981,-284.154 191.159,-284.742 189.325,-285.293 187.481,-285.807 185.636,-286.321 183.781,-286.798 181.918,-287.237 180.054,-287.675 178.181,-288.076 176.301,-288.439 174.421,-288.801 172.533,-289.126 170.64,-289.412 168.747,-289.698 166.848,-289.946 164.945,-290.155 163.041,-290.364 161.134,-290.534 159.223,-290.666 157.313,-290.797 155.4,-290.89 153.486,-290.944 151.572,-290.998 149.657,-291.013 147.743,-290.989 145.828,-290.965 143.914,-290.903 142.002,-290.801 140.09,-290.7 138.18,-290.559 136.274,-290.38 134.367,-290.202 132.465,-289.984 130.567,-289.728 128.669,-289.471 126.777,-289.177 124.892,-288.844 123.006,-288.511 121.127,-288.139 119.257,-287.73 117.386,-287.321 115.524,-286.874 113.672,-286.389 111.819,-285.904 109.977,-285.382 108.146,-284.822 106.314,-284.262 104.495,-283.666 102.688,-283.032 100.881,-282.399 99.0868,-281.729 97.3071,-281.022 95.5273,-280.316 93.762,-279.574 92.0123,-278.796 90.2627,-278.018 88.529,-277.205 86.8123,-276.356 85.0957,-275.508 83.3964,-274.625 81.7156,-273.708 80.0348,-272.79 78.3728,-271.839 76.7306,-270.854 75.0884,-269.87 73.4664,-268.852 71.8655,-267.801 70.2646,-266.75 68.6853,-265.668 67.1283,-264.553 65.5714,-263.438 64.0373,-262.292 62.5269,-261.115 61.0165,-259.938 59.5301,-258.731 58.0687,-257.493 56.6073,-256.256 55.1712,-254.989 53.7612,-253.694 52.3513,-252.398 50.9677,-251.074 49.6115,-249.722 48.2553,-248.371 46.9266,-246.992 45.6264,-245.586 44.3261,-244.18 43.0545,-242.748 41.8124,-241.291 40.5702,-239.834 39.3578,-238.352 38.1758,-236.845 36.9939,-235.339 35.8426,-233.808 34.7227,-232.255 33.6029,-230.702 32.5146,-229.126 31.4587,-227.529 30.4028,-225.932 29.3795,-224.313 28.3893,-222.674 27.3991,-221.035 26.4422,-219.376 25.5193,-217.699 24.5965,-216.021 23.7077,-214.325 22.8537,-212.611 21.9997,-210.897 21.1805,-209.166 20.3967,-207.419 19.613,-205.672 18.8647,-203.909 18.1525,-202.132 17.4403,-200.354 16.7642,-198.563 16.1247,-196.758 15.4852,-194.953 14.8824,-193.135 14.3167,-191.306 13.751,-189.476 13.2224,-187.636 12.7314,-185.785 12.2404,-183.934 11.787,-182.074 11.3715,-180.205 10.956,-178.335 10.5785,-176.458 10.2392,-174.573 9.89989,-172.689 9.59888,-170.798 9.33634,-168.901 9.0738,-167.004 8.84979,-165.102 8.66445,-163.197 8.4791,-161.291 8.33246,-159.381 8.22461,-157.47 8.11677,-155.558 8.04774,-153.644 8.01757,-151.73 7.9874,-149.815 7.99609,-147.9 8.04365,-145.986 8.0912,-144.072 8.17761,-142.158 8.30281,-140.248 8.42802,-138.337 8.59199,-136.429 8.79463,-134.525 8.99728,-132.621 9.23855,-130.721 9.5183,-128.827 9.79806,-126.933 10.1162,-125.044 10.4726,-123.163 10.829,-121.282 11.2236,-119.408 11.656,-117.542 12.0885,-115.677 12.5588,-113.821 13.0666,-111.974 13.5744,-110.128 14.1196,-108.292 14.7019,-106.468 15.2842,-104.644 15.9035,-102.832 16.5594,-101.033 17.2153,-99.2341 17.9076,-97.4486 18.6359,-95.6777 19.3642,-93.9068 20.1284,-92.1509 20.928,-90.4111 21.7276,-88.6712 22.5625,-86.9477 23.432,-85.2418 24.3016,-83.5358 25.2057,-81.8476 26.1438,-80.1784 27.0818,-78.5091 28.0537,-76.859 29.0588,-75.2292 30.0638,-73.5993 31.1018,-71.9901 32.1722,-70.4023 33.2426,-68.8146 34.3451,-67.2488 35.479,-65.7059 36.6129,-64.1629 37.778,-62.6431 38.9736,-61.1475 40.1692,-59.6518 41.3951,-58.1805 42.6504,-56.7346 43.9057,-55.2887 45.1903,-53.8684 46.5032,-52.4747 47.8162,-51.0809 49.1573,-49.7139 50.5258,-48.3746 51.8942,-47.0352 53.2897,-45.7238 54.7114,-44.4411 56.1331,-43.1584 57.5807,-41.9047 59.0532,-40.6807 60.5258,-39.4568 62.023,-38.2629 63.5441,-37.0997 65.0651,-35.9365 66.6096,-34.8043 68.1766,-33.7039 69.7435,-32.6034 71.3327,-31.5348 72.943,-30.4988 74.5534,-29.4628 76.1846,-28.4596 77.8357,-27.4899 79.4867,-26.5201 81.1573,-25.5839 82.8464,-24.6819 84.5355,-23.78 86.2427,-22.9124 87.9669,-22.0797 89.6912,-21.247 91.4322,-20.4494 93.1889,-19.6874 94.9455,-18.9254 96.7175,-18.1991 98.5036,-17.509 100.29,-16.8189 102.09,-16.1652 103.902,-15.5481 105.715,-14.9311 107.54,-14.3509 109.376,-13.8079 111.212,-13.265 113.059,-12.7593 114.916,-12.2914 116.773,-11.8234 118.639,-11.3931 120.513,-11.0008 122.387,-10.6086 124.269,-10.2544 126.158,-9.93855 128.047,-9.62268 129.941,-9.34518 131.841,-9.10621 133.741,-8.86725 135.646,-8.66687 137.553,-8.50521 139.461,-8.34355 141.373,-8.22063 143.285,-8.13653 145.198,-8.05244 147.113,-8.00718 149.028,-8.00079 150.942,-7.9944 152.857,-8.02687 154.771,-8.0982 156.684,-8.16952 158.596,-8.27968 160.505,-8.4286 162.414,-8.57753 164.32,-8.76518 166.221,-8.99146 168.123,-9.21773 170.019,-9.48258 171.91,-9.78583 173.801,-10.0891 175.685,-10.4307 177.562,-10.8104 179.438,-11.1902 181.307,-11.608 183.167,-12.0635 185.027,-12.5191 186.877,-13.0124 188.717,-13.5431 190.557,-14.0738 192.386,-14.6418 194.202,-15.2467 196.019,-15.8516 197.823,-16.4934 199.614,-17.1715 201.405,-17.8497 203.182,-18.5641 204.943,-19.3144 206.705,-20.0647 208.451,-20.8506 210.181,-21.6718 211.911,-22.4929 213.624,-23.3491 215.319,-24.2398 215.319,-24.2398 149.5,-149.5 149.5,-149.5"/>
<path fill="white" stroke="#d3d3d3" stroke-width="0.5" d="M149.5,-149.5C149.5,-149.5 215.319,-24.2398 215.319,-24.2398 218.156,-25.7304 220.941,-27.317 223.67,-28.9968 226.399,-30.6766 229.071,-32.4486 231.68,-34.3098 234.288,-36.171 236.833,-38.1203 239.31,-40.1543 241.786,-42.1883 244.193,-44.3058 246.525,-46.5032 248.858,-48.7006 251.115,-50.9767 253.293,-53.3274 255.472,-55.6781 257.569,-58.1021 259.583,-60.5952 261.596,-63.0883 263.524,-65.6491 265.364,-68.2732 267.204,-70.8973 268.954,-73.5831 270.611,-76.326 272.268,-79.0689 273.832,-81.8673 275.299,-84.7163 276.766,-87.5654 278.136,-90.4635 279.406,-93.4056 280.677,-96.3477 281.847,-99.3321 282.915,-102.354 283.982,-105.375 284.947,-108.432 285.807,-111.519 286.668,-114.606 287.423,-117.722 288.071,-120.86 288.72,-123.998 289.262,-127.158 289.696,-130.333 290.13,-133.508 290.456,-136.697 290.674,-139.894 290.891,-143.092 291,-146.295 291,-149.5 291,-149.5 149.5,-149.5 149.5,-149.5"/>
<ellipse fill="none" stroke="#d3d3d3" cx="149.5" cy="-149.5" rx="141.5" ry="141.5"/>
<ellipse fill="none" stroke="#d3d3d3" cx="149.5" cy="-149.5" rx="145.5" ry="145.5"/>
<ellipse fill="none" stroke="#d3d3d3" cx="149.5" cy="-149.5" rx="149.5" ry="149.5"/>
<text text-anchor="middle" x="149.5" y="-171.18" font-family="Times New Roman,serif" font-size="15.40">R7</text>
<text text-anchor="middle" x="149.5" y="-154.18" font-family="Times New Roman,serif" font-size="15.40"> (cov=0.293) </text>
<text text-anchor="middle" x="149.5" y="-137.18" font-family="Times New Roman,serif" font-size="15.40"> (G= 0.693) </text>
<text text-anchor="middle" x="149.5" y="-120.18" font-family="Times New Roman,serif" font-size="15.40"> (C1.0=0.841)</text>
</a>
</g>
</g>
<!-- Rule8 -->
<g id="node2" class="node"><title>Rule8: &#160;IF flavanoids is high OR very high AND Proline is very high THEN Class is 1.0 (cov=0.241 ; G= 0.484 ; C1.0=0.705)</title>
<g id="a_node2"><a xlink:title="Rule8: &#160;IF flavanoids is high OR very high AND Proline is very high THEN Class is 1.0 (cov=0.241 ; G= 0.484 ; C1.0=0.705)">
<path fill="#d3d3d3" stroke="#d3d3d3" stroke-width="0.5" d="M371.984,-433.5C371.984,-433.5 494.484,-433.5 494.484,-433.5 494.484,-436.178 494.396,-438.856 494.22,-441.528 494.045,-444.2 493.782,-446.866 493.432,-449.521 493.081,-452.176 492.644,-454.819 492.121,-457.446 491.597,-460.072 490.988,-462.681 490.293,-465.267 489.599,-467.854 488.819,-470.417 487.957,-472.952 487.094,-475.488 486.149,-477.994 485.122,-480.468 484.095,-482.941 482.988,-485.38 481.801,-487.781 480.614,-490.182 479.349,-492.543 478.008,-494.861 476.666,-497.179 475.249,-499.452 473.759,-501.677 472.268,-503.902 470.705,-506.078 469.072,-508.2 467.439,-510.323 465.736,-512.391 463.968,-514.402 462.199,-516.413 460.365,-518.366 458.468,-520.257 456.571,-522.147 454.613,-523.975 452.597,-525.738 450.58,-527.5 448.506,-529.196 446.379,-530.822 444.251,-532.449 442.071,-534.005 439.841,-535.488 437.611,-536.972 435.334,-538.382 433.011,-539.716 433.011,-539.716 371.984,-433.5 371.984,-433.5"/>
<path fill="white" stroke="#d3d3d3" stroke-width="0.5" d="M371.984,-433.5C371.984,-433.5 433.011,-539.716 433.011,-539.716 430.116,-541.38 427.153,-542.925 424.131,-544.346 421.109,-545.768 418.03,-547.066 414.902,-548.236 411.774,-549.406 408.599,-550.448 405.386,-551.358 402.172,-552.269 398.923,-553.048 395.646,-553.693 392.369,-554.338 389.068,-554.849 385.749,-555.224 382.43,-555.599 379.098,-555.839 375.759,-555.942 372.421,-556.045 369.08,-556.011 365.745,-555.841 362.409,-555.671 359.082,-555.364 355.772,-554.922 352.461,-554.48 349.17,-553.903 345.907,-553.192 342.644,-552.481 339.411,-551.637 336.217,-550.662 333.022,-549.687 329.869,-548.582 326.766,-547.349 323.662,-546.116 320.609,-544.757 317.616,-543.275 314.624,-541.792 311.693,-540.188 308.831,-538.467 305.969,-536.745 303.179,-534.907 300.467,-532.957 297.756,-531.007 295.125,-528.947 292.582,-526.782 290.039,-524.618 287.585,-522.35 285.227,-519.984 282.869,-517.619 280.609,-515.158 278.452,-512.608 276.296,-510.058 274.244,-507.421 272.303,-504.704 270.361,-501.986 268.532,-499.19 266.819,-496.323 265.107,-493.456 263.512,-490.52 262.039,-487.522 260.566,-484.525 259.216,-481.468 257.993,-478.36 256.77,-475.253 255.675,-472.096 254.71,-468.899 253.745,-465.701 252.911,-462.466 252.21,-459.2 251.509,-455.935 250.943,-452.642 250.511,-449.33 250.079,-446.019 249.783,-442.691 249.624,-439.355 249.464,-436.019 249.441,-432.678 249.554,-429.34 249.668,-426.002 249.918,-422.67 250.303,-419.353 250.689,-416.035 251.21,-412.735 251.866,-409.46 252.521,-406.185 253.31,-402.938 254.231,-399.728 255.152,-396.518 256.203,-393.346 257.383,-390.222 258.563,-387.097 259.87,-384.023 261.302,-381.005 262.733,-377.987 264.287,-375.03 265.96,-372.139 267.633,-369.248 269.423,-366.427 271.327,-363.683 273.23,-360.939 275.245,-358.274 277.366,-355.694 279.488,-353.114 281.713,-350.622 284.038,-348.225 286.363,-345.827 288.785,-343.525 291.298,-341.326 293.811,-339.126 296.413,-337.03 299.098,-335.043 301.782,-333.055 304.546,-331.179 307.384,-329.418 310.222,-327.657 313.13,-326.012 316.102,-324.489 319.074,-322.965 322.107,-321.564 325.194,-320.288 328.28,-319.012 331.418,-317.863 334.598,-316.844 337.779,-315.825 341,-314.936 344.253,-314.18 347.506,-313.424 350.789,-312.801 354.093,-312.314 357.397,-311.826 360.719,-311.473 364.052,-311.257 367.385,-311.041 370.725,-310.961 374.064,-311.018 377.404,-311.074 380.739,-311.268 384.063,-311.597 387.386,-311.926 390.695,-312.391 393.98,-312.991 397.266,-313.591 400.525,-314.325 403.751,-315.191 406.977,-316.057 410.165,-317.054 413.309,-318.181 416.453,-319.308 419.55,-320.563 422.591,-321.942 425.633,-323.322 428.617,-324.826 431.535,-326.449 434.454,-328.073 437.305,-329.815 440.081,-331.672 442.857,-333.528 445.556,-335.498 448.172,-337.575 450.787,-339.652 453.316,-341.835 455.753,-344.119 458.19,-346.403 460.532,-348.785 462.774,-351.261 465.017,-353.736 467.157,-356.302 469.189,-358.952 471.221,-361.602 473.145,-364.335 474.954,-367.142 476.763,-369.949 478.457,-372.829 480.03,-375.775 481.604,-378.721 483.057,-381.73 484.385,-384.794 485.713,-387.859 486.915,-390.976 487.988,-394.139 489.061,-397.302 490.004,-400.507 490.815,-403.747 491.627,-406.986 492.305,-410.258 492.849,-413.553 493.393,-416.848 493.802,-420.165 494.074,-423.493 494.347,-426.822 494.484,-430.16 494.484,-433.5 494.484,-433.5 371.984,-433.5 371.984,-433.5"/>
<ellipse fill="none" stroke="#d3d3d3" cx="371.984" cy="-433.5" rx="122.5" ry="122.5"/>
<ellipse fill="none" stroke="#d3d3d3" cx="371.984" cy="-433.5" rx="126.5" ry="126.5"/>
<text text-anchor="middle" x="371.984" y="-455.18" font-family="Times New Roman,serif" font-size="15.40">R8</text>
<text text-anchor="middle" x="371.984" y="-438.18" font-family="Times New Roman,serif" font-size="15.40"> (cov=0.241) </text>
<text text-anchor="middle" x="371.984" y="-421.18" font-family="Times New Roman,serif" font-size="15.40"> (G= 0.484) </text>
<text text-anchor="middle" x="371.984" y="-404.18" font-family="Times New Roman,serif" font-size="15.40"> (C1.0=0.705)</text>
</a>
</g>
</g>
<!-- Rule7&#45;&#45;Rule8 -->
<g id="edge1" class="edge"><title>R7 &#45;&#45; R8 (0.748)</title>
<g id="a_edge1"><a xlink:title="R7 &#45;&#45; R8 (0.748)">
<path fill="none" stroke="green" stroke-width="8.478" d="M241.92,-267.474C259.112,-289.42 276.922,-312.154 293.642,-333.497"/>
</a>
</g>
<text text-anchor="middle" x="250.781" y="-305.486" font-family="Times New Roman,serif" font-size="15.00">0.748</text>
</g>
</g>
</svg>
